<?xml version="1.0" standalone="no"?>
<!DOCTYPE svg PUBLIC "-//W3C//DTD SVG 20010904//EN"
 "http://www.w3.org/TR/2001/REC-SVG-20010904/DTD/svg10.dtd">
<svg version="1.0" xmlns="http://www.w3.org/2000/svg"
 width="960.000000pt" height="720.000000pt" viewBox="0 0 960.000000 720.000000"
 preserveAspectRatio="xMidYMid meet">
<metadata>
Created by potrace 1.15, written by Peter Selinger 2001-2017
</metadata>
<g transform="translate(0.000000,720.000000) scale(0.100000,-0.100000)"
fill="#000000" stroke="none">
<path d="M1745 5641 c-158 -39 -288 -113 -395 -221 -92 -94 -124 -162 -128
-270 -3 -99 12 -141 66 -177 29 -19 136 -42 147 -31 2 2 -2 22 -10 43 -43 120
8 315 109 423 86 92 245 153 395 151 84 -1 127 -13 166 -47 146 -128 22 -458
-187 -497 -32 -6 -36 -5 -32 12 19 84 94 446 92 448 -2 0 -71 -8 -154 -19
l-150 -20 -133 -623 c-73 -343 -135 -632 -138 -643 -5 -19 0 -20 145 -20 l151
0 11 58 c57 276 149 694 154 699 4 4 29 7 57 7 40 0 55 -5 75 -26 55 -55 52
-118 -22 -406 -64 -247 -58 -310 33 -348 18 -8 55 -14 82 -14 47 0 189 25 199
35 3 3 -7 14 -22 26 -61 48 -62 106 -2 348 53 211 59 306 27 377 -18 39 -66
84 -90 84 -20 0 -11 15 23 37 46 30 100 98 133 169 37 79 40 206 6 269 -46 87
-152 158 -271 184 -79 17 -255 13 -337 -8z"/>
<path d="M3615 5206 l-150 -19 -54 -153 c-73 -207 -178 -423 -226 -466 -20
-17 -47 -52 -59 -77 -27 -57 -124 -134 -198 -156 -105 -31 -205 -10 -227 48
-10 25 -15 81 -12 138 l1 36 68 12 c209 38 371 199 389 384 10 115 -36 192
-130 218 -60 16 -200 6 -267 -20 -202 -77 -363 -371 -365 -666 0 -134 15 -191
66 -249 124 -141 409 -121 605 42 l62 51 18 -40 c21 -48 72 -95 133 -123 36
-16 66 -20 136 -20 123 -1 207 27 305 99 41 30 105 77 143 104 l67 50 0 -27
c1 -65 63 -158 131 -192 155 -80 397 -30 557 116 52 47 62 52 58 33 -28 -122
-36 -162 -36 -170 0 -5 63 -9 148 -9 l148 0 78 378 78 377 40 37 c38 35 95 57
116 44 5 -3 15 -26 21 -50 6 -24 18 -52 27 -60 22 -22 101 -21 140 3 64 39 86
156 41 222 -33 49 -61 60 -138 57 -58 -3 -74 -8 -125 -43 -93 -63 -87 -61 -79
-24 3 19 9 42 11 52 5 16 -7 17 -144 17 -147 0 -150 0 -155 -22 -3 -13 -33
-156 -67 -318 l-62 -295 -74 -73 c-88 -86 -157 -122 -248 -129 -122 -10 -166
33 -166 164 l0 68 68 13 c97 18 203 73 272 142 75 75 112 152 118 246 6 88 -9
134 -53 173 -48 41 -103 54 -208 48 -123 -6 -209 -49 -300 -147 -104 -113
-178 -292 -202 -490 -5 -41 -10 -49 -53 -77 l-47 -31 -2 42 c-1 22 -10 145
-18 271 -9 127 -19 286 -23 355 l-7 125 -150 -19z m-658 -144 c39 -25 35 -128
-8 -214 -40 -81 -127 -155 -211 -179 -18 -5 -28 -4 -28 3 0 31 37 144 70 215
47 100 80 146 123 167 37 18 38 18 54 8z m1533 -2 c47 -25 32 -156 -30 -248
-44 -66 -111 -118 -176 -138 l-45 -13 7 37 c9 49 51 165 81 225 36 71 100 138
141 146 2 1 12 -4 22 -9z m-982 -572 c-2 -59 -8 -83 -24 -104 -33 -44 -68 -66
-118 -71 -57 -7 -102 11 -121 48 -24 46 -20 57 24 55 78 -2 126 85 81 146
l-22 30 50 106 c27 59 60 137 73 175 l24 67 18 -187 c9 -104 16 -223 15 -265z"/>
<path d="M6039 5171 c-24 -24 -29 -38 -29 -76 0 -83 35 -121 101 -108 26 5 29
3 29 -20 0 -47 -28 -173 -60 -270 -52 -157 -140 -295 -212 -333 -33 -17 -100
-18 -116 -2 -21 21 -13 75 63 435 41 195 75 356 75 358 0 3 -67 5 -148 5
l-149 0 -51 -242 c-104 -493 -104 -490 -99 -558 8 -121 63 -187 175 -211 75
-16 192 0 263 36 205 104 363 431 376 776 5 124 4 139 -16 177 -26 52 -45 62
-116 62 -49 0 -60 -4 -86 -29z"/>
<path d="M6670 5164 c-190 -51 -342 -256 -394 -534 -20 -103 -20 -232 -2 -294
24 -79 61 -122 135 -159 61 -30 73 -32 166 -32 86 1 108 4 155 26 30 14 69 38
87 53 37 31 91 133 100 190 l6 38 -51 -37 c-54 -39 -145 -75 -187 -75 -65 0
-107 46 -120 132 -10 69 -2 85 51 93 120 18 222 72 308 166 71 76 99 147 100
249 0 106 -30 157 -111 186 -50 17 -174 17 -243 -2z m172 -111 c25 -22 24
-107 -3 -178 -36 -96 -137 -188 -231 -209 l-27 -6 20 72 c23 83 86 222 124
272 21 27 74 65 94 66 3 0 13 -7 23 -17z"/>
<path d="M7825 5156 c-66 -21 -106 -46 -167 -104 -138 -131 -216 -319 -225
-543 -7 -164 8 -223 76 -290 115 -116 302 -100 430 36 l52 55 10 -28 c27 -74
65 -114 127 -132 57 -15 93 -12 142 13 36 18 51 35 82 92 21 39 38 76 38 83 0
8 -15 12 -44 12 -53 0 -76 19 -76 63 0 17 34 190 75 384 41 195 75 356 75 358
0 3 -67 5 -149 5 l-148 0 -7 -32 -6 -32 -16 23 c-9 13 -32 29 -50 37 -41 17
-165 17 -219 0z m232 -138 c13 -12 23 -31 23 -43 0 -40 -99 -484 -115 -520
-10 -19 -35 -50 -56 -70 -76 -68 -160 -39 -175 61 -15 103 39 344 101 451 74
126 164 175 222 121z"/>
<path d="M3881 3141 c-77 -11 -117 -21 -122 -31 -7 -12 -89 -388 -89 -407 0
-3 -9 6 -21 20 -28 36 -81 50 -175 45 -211 -10 -380 -186 -461 -479 -14 -48
-18 -102 -18 -214 0 -167 9 -198 77 -261 57 -54 94 -68 183 -68 103 0 157 24
234 102 l57 59 18 -44 c35 -84 118 -120 239 -103 84 12 136 38 203 102 49 46
53 48 59 28 11 -34 74 -99 119 -123 32 -16 59 -21 121 -21 103 0 157 23 236
104 l58 60 11 -40 c43 -161 284 -170 446 -18 l52 49 6 -28 c26 -101 150 -154
284 -119 84 21 135 49 195 104 33 31 52 42 55 34 12 -36 73 -99 117 -121 40
-21 63 -26 124 -25 112 1 196 43 265 132 25 31 36 40 36 27 0 -36 43 -106 79
-130 70 -45 166 -45 222 2 24 20 99 147 99 167 0 3 -23 6 -52 8 -44 3 -55 7
-67 29 -13 24 -8 55 62 390 43 200 77 370 77 377 0 10 -33 12 -147 10 l-148
-3 -5 -30 -5 -29 -17 26 c-25 38 -76 51 -177 46 -65 -3 -99 -10 -141 -30 -180
-83 -327 -340 -347 -607 l-6 -86 -48 -48 c-46 -47 -49 -48 -100 -45 -45 3 -56
7 -68 29 -13 24 -9 52 55 355 l70 329 61 3 c59 3 61 4 67 34 11 57 10 58 -49
58 -30 0 -55 3 -55 8 0 4 14 73 31 155 18 81 30 149 27 152 -6 7 -291 -34
-299 -43 -3 -4 -18 -67 -34 -139 l-28 -133 -32 0 c-34 0 -45 -16 -45 -67 0
-19 5 -23 31 -23 24 0 29 -4 25 -17 -3 -10 -30 -137 -61 -283 -73 -349 -114
-434 -210 -434 -48 0 -75 27 -75 77 0 30 105 557 145 725 l5 22 -149 0 -149 0
-7 -30 -7 -31 -19 25 c-28 35 -82 49 -175 44 -107 -5 -190 -44 -270 -126 -123
-126 -190 -283 -215 -502 -16 -139 -54 -190 -142 -190 -53 0 -70 16 -69 67 0
21 53 282 116 581 64 299 116 547 116 552 0 13 -40 11 -179 -9z m-266 -526
c14 -13 25 -29 25 -35 0 -30 -103 -491 -117 -523 -9 -21 -35 -54 -57 -73 -52
-44 -110 -48 -147 -8 -22 24 -24 33 -24 132 1 210 95 444 203 509 48 30 87 29
117 -2z m1050 0 c14 -13 25 -31 25 -38 0 -40 -104 -496 -121 -528 -46 -92
-148 -129 -200 -73 -22 24 -24 33 -24 132 1 210 95 444 203 509 48 30 87 29
117 -2z m1576 14 c41 -21 40 -45 -15 -300 -29 -135 -62 -263 -74 -286 -41 -80
-139 -118 -191 -75 -63 51 -34 314 54 497 66 137 155 202 226 164z"/>
</g>
</svg>
