<?xml version="1.0" standalone="no"?>
<!DOCTYPE svg PUBLIC "-//W3C//DTD SVG 20010904//EN"
 "http://www.w3.org/TR/2001/REC-SVG-20010904/DTD/svg10.dtd">
<svg version="1.0" xmlns="http://www.w3.org/2000/svg"
 width="960.000000pt" height="720.000000pt" viewBox="0 0 960.000000 720.000000"
 preserveAspectRatio="xMidYMid meet">
<metadata>
Created by potrace 1.15, written by Peter Selinger 2001-2017
</metadata>
<g transform="translate(0.000000,720.000000) scale(0.100000,-0.100000)"
fill="#000000" stroke="none">
<path d="M1770 6354 c-224 -48 -433 -192 -518 -359 -30 -58 -42 -181 -23 -237
21 -65 90 -108 172 -108 22 0 39 2 39 4 0 2 -7 20 -15 39 -44 105 11 321 108
425 70 75 221 138 358 148 101 8 156 -5 203 -47 101 -88 79 -294 -44 -417 -52
-51 -83 -69 -138 -78 -36 -6 -40 -4 -36 12 22 93 92 439 89 442 -5 5 -294 -34
-300 -39 -1 -2 -62 -283 -135 -624 -72 -341 -134 -628 -136 -637 -5 -17 7 -18
145 -18 83 0 151 2 151 5 0 4 146 693 155 733 5 19 12 22 60 22 66 0 102 -26
115 -85 12 -55 5 -101 -51 -322 -52 -205 -58 -265 -33 -318 25 -53 70 -69 178
-62 50 3 109 11 131 17 39 12 39 12 19 29 -70 56 -71 111 -9 360 54 221 59
311 22 381 -15 29 -37 51 -64 66 l-41 21 25 14 c14 7 47 37 73 66 167 183 141
415 -59 522 -108 57 -296 77 -441 45z"/>
<path d="M3590 5910 c-69 -10 -126 -19 -127 -19 -1 -1 -16 -45 -34 -98 -82
-247 -179 -452 -244 -516 -25 -25 -52 -61 -60 -80 -8 -19 -35 -53 -61 -75 -69
-62 -127 -86 -214 -90 -135 -8 -168 33 -161 201 1 33 4 37 29 37 78 0 217 61
293 129 93 82 146 203 136 313 -10 109 -69 163 -189 174 -276 26 -499 -197
-563 -565 -52 -297 35 -453 263 -468 150 -11 294 38 403 136 l56 50 19 -40
c24 -55 96 -116 157 -134 133 -40 307 -2 420 90 18 15 70 53 117 85 l84 59 13
-51 c33 -129 141 -198 306 -198 139 0 266 53 374 154 35 32 63 56 63 54 0 -2
-9 -44 -20 -94 -11 -49 -20 -92 -20 -96 0 -5 67 -8 148 -8 l149 0 78 378 79
377 35 32 c36 34 93 58 115 50 8 -3 17 -21 21 -39 4 -18 14 -45 21 -60 13 -26
19 -28 73 -28 92 0 141 52 141 147 0 101 -61 158 -161 150 -62 -5 -95 -19
-164 -73 l-48 -36 6 30 c3 16 9 41 13 56 l6 26 -150 0 -150 0 -10 -47 c-142
-669 -121 -608 -237 -702 -82 -67 -144 -91 -235 -91 -63 0 -73 3 -102 29 -32
28 -33 32 -36 118 l-4 88 69 11 c147 23 294 127 354 250 60 122 49 263 -26
320 -73 55 -247 55 -362 -2 -104 -50 -214 -178 -268 -311 -24 -62 -61 -207
-70 -285 -5 -42 -11 -49 -53 -77 l-47 -31 -3 53 c-1 28 -9 142 -17 252 -8 110
-17 264 -21 343 l-7 142 -26 -1 c-14 -1 -82 -9 -151 -19z m-619 -156 c17 -21
15 -107 -5 -163 -21 -58 -77 -132 -125 -165 -43 -30 -120 -60 -129 -51 -10 10
38 158 78 241 60 123 142 185 181 138z m1535 -9 c34 -52 -6 -186 -80 -272 -47
-54 -186 -125 -186 -95 0 4 9 41 21 82 60 218 190 369 245 285z m-997 -530 c1
-131 -55 -195 -169 -195 -44 0 -56 5 -81 29 -16 17 -29 40 -29 54 0 20 4 23
25 19 38 -7 82 16 99 53 21 44 20 67 -5 99 l-21 27 54 117 c30 64 64 141 74
171 l19 54 17 -179 c9 -98 17 -210 17 -249z"/>
<path d="M6058 5894 c-37 -20 -48 -43 -48 -104 0 -41 5 -56 26 -77 21 -21 32
-25 65 -20 37 5 39 4 39 -23 0 -43 -27 -165 -56 -255 -80 -245 -230 -409 -320
-350 -18 11 -24 25 -24 50 0 19 34 193 75 388 41 195 75 357 75 361 0 3 -67 6
-148 6 l-149 0 -76 -367 c-43 -203 -77 -391 -77 -419 0 -152 91 -234 258 -234
125 0 247 61 334 166 136 164 228 442 228 685 0 111 -12 154 -55 187 -33 26
-105 29 -147 6z"/>
<path d="M6700 5880 c-138 -29 -265 -141 -344 -302 -68 -139 -91 -236 -91
-393 0 -120 2 -134 27 -187 49 -105 153 -154 307 -146 143 9 228 60 284 173
26 51 45 125 32 125 -3 0 -21 -11 -38 -24 -56 -42 -119 -68 -177 -73 -49 -5
-59 -2 -87 21 -36 30 -59 106 -49 161 6 30 11 35 35 35 83 0 229 69 308 147
77 75 116 162 117 262 2 141 -56 200 -202 207 -42 1 -97 -1 -122 -6z m150
-125 c9 -10 11 -37 8 -83 -9 -119 -84 -228 -191 -278 -86 -39 -89 -37 -66 49
58 212 192 380 249 312z"/>
<path d="M7819 5861 c-164 -53 -303 -234 -365 -476 -22 -85 -25 -118 -22 -220
3 -107 6 -126 31 -177 90 -184 352 -185 498 -2 29 36 32 36 43 -8 9 -37 63
-98 103 -114 42 -18 115 -18 157 0 18 8 45 29 59 48 26 34 66 114 67 133 0 6
-21 10 -46 10 -52 0 -74 20 -74 66 0 16 34 187 75 382 41 195 75 357 75 361 0
3 -67 6 -149 6 l-148 0 -7 -31 -6 -32 -20 26 c-39 49 -166 62 -271 28z m244
-138 c9 -9 17 -27 17 -40 0 -13 -23 -130 -50 -261 -57 -264 -76 -310 -145
-349 -53 -30 -78 -29 -117 6 l-33 29 1 104 c1 164 67 369 150 468 54 63 133
82 177 43z"/>
<path d="M3896 3849 c-71 -10 -133 -22 -136 -26 -4 -5 -26 -102 -50 -217 -32
-151 -46 -202 -52 -187 -4 13 -28 31 -54 43 -60 26 -171 21 -257 -12 -107 -41
-233 -182 -292 -329 -49 -121 -67 -223 -63 -361 3 -113 6 -130 31 -178 49 -93
141 -139 261 -130 80 7 149 43 216 113 l49 53 6 -30 c16 -69 106 -128 195
-128 97 0 233 64 282 133 l21 30 24 -47 c44 -87 140 -133 257 -124 80 7 149
43 215 113 l49 52 11 -38 c27 -90 105 -135 215 -127 82 7 179 51 235 107 23
23 43 41 45 41 2 0 7 -11 10 -24 9 -37 56 -87 101 -107 52 -24 137 -24 213 -1
68 22 163 81 186 117 20 30 33 32 41 4 11 -33 65 -88 109 -112 33 -17 58 -22
126 -22 108 0 160 23 240 104 57 59 58 59 63 33 16 -78 101 -142 190 -142 68
0 111 23 146 78 24 39 61 115 61 128 0 1 -16 0 -35 -3 -41 -7 -82 16 -90 50
-3 12 28 183 70 379 41 197 75 365 75 373 0 13 -20 15 -147 13 l-148 -3 -3
-28 -3 -28 -34 30 c-80 70 -269 48 -390 -45 -79 -60 -171 -201 -215 -329 -26
-74 -50 -204 -50 -266 0 -42 -5 -53 -37 -87 -46 -48 -110 -71 -148 -54 -53 24
-53 37 14 354 35 161 67 310 72 331 l10 37 58 0 c63 0 70 8 71 68 0 20 -5 22
-55 22 -30 0 -55 5 -55 10 0 6 14 72 30 147 17 75 29 142 28 148 -4 13 -289
-22 -299 -38 -4 -5 -12 -37 -19 -71 -6 -34 -19 -91 -27 -128 -15 -67 -16 -68
-48 -68 -28 0 -33 -4 -39 -31 -10 -53 -8 -59 24 -59 26 0 30 -3 25 -22 -3 -13
-30 -138 -60 -278 -64 -302 -75 -336 -123 -390 -70 -79 -162 -62 -162 29 0 30
115 600 147 729 l5 22 -150 0 -151 0 -7 -37 c-6 -34 -8 -35 -15 -15 -5 14 -28
31 -55 44 -39 17 -61 20 -123 16 -108 -7 -179 -38 -256 -109 -138 -129 -219
-315 -240 -549 -5 -57 -13 -83 -32 -108 -66 -88 -176 -80 -175 14 1 21 53 282
116 580 64 297 116 546 116 552 0 15 -5 14 -164 -9z m-273 -531 c9 -11 17 -25
17 -32 0 -6 -25 -125 -55 -264 -35 -163 -62 -266 -75 -288 -22 -35 -94 -84
-124 -84 -36 0 -74 30 -87 67 -28 86 13 318 81 459 71 147 183 213 243 142z
m1050 0 c9 -11 17 -26 17 -33 0 -33 -102 -491 -115 -519 -23 -45 -36 -60 -79
-90 -44 -30 -65 -32 -106 -11 -41 21 -54 70 -47 179 10 162 77 347 158 439 59
68 132 83 172 35z m1560 21 c50 -23 50 -38 -8 -308 -35 -162 -61 -264 -75
-286 -44 -71 -110 -106 -163 -86 -45 17 -59 51 -59 143 1 216 102 467 212 525
49 26 59 27 93 12z"/>
<path d="M1712 1710 c-156 -33 -297 -206 -354 -435 -30 -123 -32 -343 -4 -424
25 -71 86 -133 149 -150 72 -21 190 -10 253 22 142 72 252 280 284 541 29 224
-17 370 -136 429 -39 20 -137 28 -192 17z m94 -88 c65 -42 69 -282 8 -521 -60
-242 -184 -371 -248 -261 -43 73 -30 316 26 505 54 184 156 316 214 277z"/>
<path d="M7304 1710 c-224 -47 -383 -322 -386 -665 -1 -177 37 -276 125 -325
63 -36 190 -40 272 -9 122 45 235 208 286 409 29 118 38 336 15 411 -32 112
-104 173 -216 183 -30 3 -74 1 -96 -4z m114 -130 c22 -43 23 -52 19 -200 -6
-184 -35 -318 -97 -446 -46 -95 -88 -137 -134 -132 -69 7 -97 113 -77 300 25
231 111 452 199 510 41 27 64 19 90 -32z"/>
<path d="M1264 1684 c-59 -35 -142 -62 -229 -75 -42 -7 -75 -16 -75 -23 0 -6
-3 -21 -6 -33 -6 -22 -4 -23 55 -23 33 0 61 -4 61 -10 0 -5 -38 -190 -85 -411
-47 -220 -85 -403 -85 -405 0 -2 45 -4 99 -4 86 0 100 2 105 18 15 50 207 974
204 981 -2 5 -22 -2 -44 -15z"/>
<path d="M3070 1701 c-96 -31 -258 -176 -350 -312 l-45 -66 -93 -5 c-77 -4
-103 -10 -150 -34 -96 -50 -131 -136 -77 -189 61 -61 174 -7 135 64 -11 22 9
43 59 60 72 24 73 20 15 -97 -109 -221 -157 -425 -117 -502 22 -42 73 -70 130
-70 41 0 42 1 33 26 -15 38 -12 95 10 203 20 97 89 312 130 404 l22 49 46 -7
c45 -7 122 -33 122 -41 0 -3 -22 -110 -50 -240 -27 -129 -50 -237 -50 -240 0
-2 45 -4 99 -4 86 0 100 2 105 18 3 9 50 230 106 491 64 303 97 478 91 484
-13 13 -139 19 -171 8z m-77 -271 c-19 -91 -37 -166 -38 -168 -5 -6 -139 36
-142 45 -6 16 110 191 161 243 27 28 50 49 52 47 1 -1 -13 -76 -33 -167z"/>
<path d="M6515 1701 c-118 -31 -195 -120 -195 -225 0 -88 36 -136 100 -136 42
0 100 23 100 40 0 5 -11 26 -25 46 -53 78 -39 161 31 190 76 32 128 -27 129
-146 0 -110 -38 -172 -226 -367 -180 -186 -214 -239 -214 -335 0 -31 3 -59 6
-63 4 -3 24 1 44 9 69 29 132 30 238 2 108 -29 194 -33 235 -12 15 8 41 28 57
46 28 29 30 37 30 105 0 40 -3 77 -7 80 -4 4 -21 -4 -37 -18 -49 -41 -91 -50
-158 -36 -32 7 -98 15 -148 18 l-90 6 50 54 c28 29 88 83 135 119 210 162 271
232 291 333 23 113 -21 214 -114 264 -41 23 -66 29 -127 31 -41 2 -88 0 -105
-5z"/>
<path d="M7990 1673 c-76 -39 -110 -50 -207 -64 -60 -9 -72 -15 -77 -33 -12
-43 -8 -46 54 -46 33 0 60 -3 60 -8 0 -4 -36 -178 -80 -387 -44 -209 -83 -392
-86 -407 l-6 -28 101 0 c86 0 100 2 105 18 14 49 207 975 204 981 -2 5 -32 -7
-68 -26z"/>
<path d="M8373 1695 c-192 -59 -312 -267 -259 -447 43 -148 232 -197 355 -91
46 39 47 39 26 -42 -35 -138 -101 -261 -157 -295 -93 -56 -167 19 -96 97 20
21 20 21 -1 42 -47 47 -131 14 -152 -61 -31 -116 49 -197 193 -198 105 0 168
28 254 114 80 80 130 170 166 302 17 64 21 108 22 229 0 134 -2 156 -23 209
-28 71 -82 127 -137 144 -53 15 -137 14 -191 -3z m106 -95 c28 -15 51 -84 51
-153 0 -128 -49 -218 -125 -233 -89 -16 -129 35 -121 155 5 84 48 186 93 221
27 21 73 26 102 10z"/>
<path d="M5165 1575 c-44 -8 -85 -14 -91 -14 -6 -1 -19 -41 -30 -91 -16 -80
-20 -90 -40 -90 -14 0 -24 -8 -28 -22 -10 -38 -7 -48 15 -48 17 0 20 -4 16
-22 -4 -13 -20 -88 -37 -168 -39 -186 -34 -174 -79 -203 l-38 -25 -7 121 c-10
190 -25 399 -28 403 -4 3 -199 -23 -203 -28 -1 -2 -15 -23 -30 -47 -47 -76
-136 -161 -168 -161 -3 0 -8 21 -12 47 -18 120 -83 171 -203 160 -36 -4 -84
-16 -107 -27 -54 -26 -125 -102 -159 -168 -35 -69 -66 -186 -66 -249 0 -43 -5
-59 -33 -95 -30 -39 -95 -93 -104 -85 -2 2 26 140 62 306 36 167 65 305 65
307 0 2 -45 4 -99 4 -93 0 -100 -1 -106 -21 -4 -12 -10 -17 -14 -12 -21 33
-118 44 -194 21 -51 -15 -138 -95 -176 -161 -75 -132 -100 -334 -53 -423 31
-60 82 -89 157 -89 44 0 70 6 98 23 45 26 50 27 45 7 -2 -8 -41 -34 -88 -57
-101 -51 -130 -86 -130 -159 0 -65 17 -97 62 -120 70 -36 183 -21 244 33 46
41 68 86 90 185 l17 81 43 17 c23 9 62 33 85 54 l43 38 30 -35 c41 -47 82 -62
168 -62 88 0 140 21 195 78 67 70 123 199 123 287 0 28 6 34 52 56 29 13 78
50 110 82 l57 57 5 -52 c32 -302 32 -344 0 -379 -24 -26 -78 -25 -104 3 -28
31 -25 46 12 50 43 4 75 48 62 85 -12 34 -63 50 -101 31 -48 -24 -68 -63 -67
-133 2 -117 57 -169 179 -169 86 -1 138 17 185 60 19 19 56 49 82 69 l46 35 7
-40 c9 -55 44 -103 85 -117 70 -25 179 5 246 68 l30 29 23 -31 c33 -45 93 -69
174 -69 73 0 121 15 175 56 68 52 131 182 147 302 6 45 13 60 45 88 20 18 51
61 69 94 l32 60 -28 0 c-21 0 -34 -9 -50 -35 -13 -19 -31 -39 -42 -44 -17 -10
-20 -7 -26 27 -8 48 -36 96 -69 117 -65 43 -207 24 -287 -38 -89 -68 -161
-216 -175 -363 -5 -54 -12 -75 -31 -96 -40 -42 -103 -49 -117 -12 -3 8 15 114
41 234 l46 219 41 3 c38 3 41 5 44 36 3 31 2 32 -32 32 -20 0 -36 3 -36 8 0 4
9 47 20 96 11 50 20 94 20 98 0 9 -2 9 -105 -7z m-886 -306 c13 -24 13 -29 -7
-54 -26 -33 -28 -72 -6 -104 14 -19 15 -31 6 -77 -23 -113 -85 -206 -137 -206
-46 0 -58 22 -57 104 2 128 57 284 119 339 40 35 61 34 82 -2z m1395 15 c20
-19 20 -43 1 -68 -19 -25 -19 -100 -1 -115 12 -10 12 -20 0 -72 -16 -66 -55
-150 -84 -179 -12 -12 -34 -20 -55 -20 -29 0 -37 5 -45 26 -36 94 37 361 116
423 32 25 47 26 68 5z m-2054 -14 c8 -16 3 -58 -25 -186 -19 -92 -40 -174 -45
-184 -15 -28 -70 -70 -91 -70 -10 0 -28 9 -39 20 -57 57 13 340 103 416 35 30
82 32 97 4z"/>
</g>
</svg>
